PathFileType	4	(X/Y/Z)	RBDS017\RBDS017runT35.trc
DataRate	CameraRate	NumFrames	NumMarkers	Units	OrigDataRate	OrigDataStartFrame	OrigNumFrames
150.000000	150.000000	4	33	mm	150.000000	1687	4500
Frame#	Time	L.ASIS			L.Heel.Bottom			L.Heel.Lateral			L.Heel.Top			L.Iliac.Crest			L.MT1			L.MT5			L.PSIS			L.Shank.Bottom.Lateral			L.Shank.Bottom.Medial			L.Shank.Top.Lateral			L.Shank.Top.Medial			L.Thigh.Bottom.Lateral			L.Thigh.Bottom.Medial			L.Thigh.Top.Lateral			L.Thigh.Top.Medial			R.ASIS			R.ASY			R.Heel.Bottom			R.Heel.Lateral			R.Heel.Top			R.Iliac.Crest			R.MT1			R.MT5			R.PSIS			R.Shank.Bottom.Lateral			R.Shank.Bottom.Medial			R.Shank.Top.Lateral			R.Shank.Top.Medial			R.Thigh.Bottom.Lateral			R.Thigh.Bottom.Medial			R.Thigh.Top.Lateral			R.Thigh.Top.Medial			
		X1	Y1	Z1	X2	Y2	Z2	X3	Y3	Z3	X4	Y4	Z4	X5	Y5	Z5	X6	Y6	Z6	X7	Y7	Z7	X8	Y8	Z8	X9	Y9	Z9	X10	Y10	Z10	X11	Y11	Z11	X12	Y12	Z12	X13	Y13	Z13	X14	Y14	Z14	X15	Y15	Z15	X16	Y16	Z16	X17	Y17	Z17	X18	Y18	Z18	X19	Y19	Z19	X20	Y20	Z20	X21	Y21	Z21	X22	Y22	Z22	X23	Y23	Z23	X24	Y24	Z24	X25	Y25	Z25	X26	Y26	Z26	X27	Y27	Z27	X28	Y28	Z28	X29	Y29	Z29	X30	Y30	Z30	X31	Y31	Z31	X32	Y32	Z32	X33	Y33	Z33	

1688	11.24666666666667	2242.175963640513	980.7451998430491	876.8896093211891	1712.158689677322	600.8148823075632	930.9644418624237	1722.60522248499	580.8681219043712	890.6504445814805	1754.336674285907	584.1120165058423	927.4821265113121	2199.388438711127	1081.404948718894	840.1047942724265	1688.776590843103	372.4522303772052	941.6489171344666	1672.383322442713	423.8346983702944	840.8814337953463	2069.191266977748	1062.687507591644	957.1208239747848	1853.731805844531	515.1942748504374	856.8383088793287	1858.216907899003	555.0868495257191	895.00364607317	1932.249651090882	520.0869430297262	842.4302359598163	1938.038668433877	559.325498069546	879.0062871276389	2195.021242740098	606.6055796632731	810.6193031904643	2136.563803511643	591.9945014002188	850.4275975336814	2166.547169394947	712.979922764115	812.2142190400482	2112.876680802246	700.1063637790874	852.3018036716506	2231.199873207679	996.781014527792	1159.096284178328	2272.711636485584	75.3041303117905	1093.387948408063	2074.900018022439	32.33498081830186	1056.186208653211	2094.262400942816	54.0252818860919	1098.412068566711	2088.6918709577	78.29677062819914	1056.464250226784	2170.492541220142	1070.861570009817	1195.433731289639	2303.645472697675	47.33659265985129	1053.877543750538	2249.337763134592	38.79875424922716	1161.163295321384	2064.585211364475	1063.954208583302	1054.898503758831	2180.866166353132	179.4926371435084	1118.426623735997	2142.977094450885	197.2583940284337	1088.163667246085	2202.656473158922	260.0668011985677	1135.920782036764	2160.713340993333	274.8533799244191	1105.155847439828	2260.108278885885	625.1614386465991	1164.523118403287	2204.153643439461	602.058800295859	1123.395716412988	2207.177586123915	719.7248604876686	1179.432547236036	2152.939230332275	697.1819930583428	1142.582133796471	
1689	11.25333333333333	2239.098629967178	978.3367289534884	875.6648068204086	1725.079308724731	595.429019116805	929.6788324366747	1736.346362838105	575.2673718719896	889.6070053451778	1767.775648673108	579.7168610910491	926.5922188339831	2194.061068414481	1079.08927729832	839.7367852944288	1707.113738855516	366.777352834146	943.1338555042734	1690.206080121352	416.4284888252745	841.5708019213206	2067.118725948616	1061.685655309537	958.4045407079573	1869.328775201121	511.6195470675943	857.0143378697161	1873.30106663794	551.8380883793078	894.8437578886848	1947.764506209542	517.2673360392146	842.6893601468531	1953.10117506322	556.810932167505	879.0123381219639	2205.637153796279	607.4151424699223	811.2626994077377	2147.773327618354	590.4598746714564	850.9783876624718	2173.115900897434	712.5869976114728	813.0930093510573	2119.894818211214	697.5481957468425	852.9634430710571	2230.274519466484	994.7447692439189	1159.449382197183	2248.987158445098	75.69090530236946	1093.660128145252	2051.44173023075	32.66407588691495	1056.386210233129	2070.752204077203	54.40642371902848	1098.628716397528	2065.118826826882	78.62565945271949	1056.685048223343	2169.415325946158	1068.19283044831	1195.935243821194	2279.934380825849	47.8814631822782	1054.36113443323	2225.677692073739	39.17354560196362	1161.437278625772	2063.363274280381	1063.27599609694	1055.852542871998	2160.725688075668	179.6613498911614	1118.318572103478	2123.238946508782	198.5078160690798	1088.245151811415	2185.112238997043	259.4786435897572	1135.680508569023	2143.426323322602	275.4837063921298	1105.101889710505	2252.862394047263	622.0285028329255	1164.206171705874	2196.204531024689	600.0376802723255	1123.428901936962	2201.816671059354	717.6135760138343	1179.520704349144	2147.035750691764	696.0714167468029	1142.944479839356	
1690	11.26	2236.20661413935	977.2855601260414	874.2215667799918	1737.41158851066	588.2696341806857	928.6935396763737	1749.609165267241	568.0576012656161	888.8445542890375	1780.696553670949	573.8110282485942	925.9714760946226	2188.394048837332	1078.332435775589	839.2989535922121	1726.192789547709	359.3888799995236	944.6018618111068	1708.457230724195	407.3580721970038	842.3497138297201	2065.36648431157	1061.637080587636	959.5087586360346	1884.732554155105	507.2934244258842	857.3531532265582	1887.90753205979	547.8437826536133	894.8590397406373	1963.045955386343	514.2547394609719	843.1546228466309	1967.612463940791	554.10881731117	879.2058441236671	2216.336571791701	609.5690039965048	812.0144886985253	2159.180929723677	590.2634510127699	851.6776960097621	2179.723016011311	713.3604920177106	814.0145098584098	2127.013663936025	696.1310723121487	853.659005794073	2229.550044437038	993.5777668274684	1159.608973604707	2225.216910057051	75.95733170733367	1094.17929112289	2027.879087256529	33.09511789889835	1056.728700875841	2047.147516870201	54.76147192589744	1099.047516435565	2041.410353278944	79.06384256333187	1057.211303475579	2168.615070698693	1066.851532375578	1196.402929523599	2256.122804895185	48.33177373764472	1054.91459136566	2201.965353958584	39.25660800726675	1161.7720285833	2062.401141875734	1063.418292486029	1056.751204884514	2139.968316430421	179.9705403756265	1118.599059459679	2102.963482597324	199.7518880391617	1088.596695400521	2166.644616708802	259.0331780941635	1135.804503248728	2125.293328008732	276.0942170760068	1105.294167731733	2244.437960315454	619.3238773474112	1164.079672774992	2187.019711397802	598.5927383726347	1123.699499608418	2195.579464096111	716.0789785652884	1179.678196042206	2140.24857883079	695.7091753360581	1143.329671452707	
1691	11.26666666666667	2233.596693784526	977.5786988434429	872.6435069297861	1749.208833487313	579.3395950082843	928.0846432083226	1762.41869741416	559.2593039323791	888.4364209444783	1793.109469224574	566.3841245581845	925.6884832023667	2182.625574268096	1079.04452511103	838.8070041751872	1745.972139681697	350.4004544654143	946.040501174804	1727.120450785703	396.7730691422115	843.2235250533881	2063.956010782455	1062.470144901884	960.4070063114069	1899.87449573535	502.2285670128196	857.8825377535049	1901.977175115692	543.0996427431425	895.0808577156001	1978.002138771101	511.0447697876818	843.8362716302912	1981.488883028548	551.199309195903	879.597760723585	2227.013071310868	613.0097259958676	812.8484828383172	2170.656293609823	591.3861115517449	852.4902339798753	2186.316647970018	715.2539663636695	814.926703592625	2134.169810261398	695.8446222075505	854.3313687587886	2229.023181437424	993.2393324584804	1159.570927030228	2201.439694704843	76.08212588115724	1094.881314838549	2004.21347431041	33.75433897484613	1057.185109667238	2023.470386522843	55.22624545435735	1099.628650949814	2017.61617974279	79.73050248544979	1057.980584232836	2168.145110980831	1066.731922796151	1196.8026285092	2232.233162515524	48.62058250735017	1055.484852695416	2178.190142236919	39.08570106412206	1162.141522669036	2061.709469797521	1064.322399380349	1057.56635198078	2118.690500159102	180.4828639167341	1119.205296550761	2082.210004134117	201.0654904205207	1089.179002438632	2147.37336720101	258.8184110528989	1136.252090504222	2106.39956327169	276.7867216410574	1105.720432692654	2234.912208989867	617.1484398472629	1164.139339794452	2176.705767407693	597.8174833479154	1124.179352874946	2188.523414356731	715.1855064657208	1179.895659401687	2132.65472217426	696.1549279283514	1143.713483093928	
